<svg width="34" height="35" viewBox="0 0 34 35" fill="none" xmlns="http://www.w3.org/2000/svg">
<path d="M30.8833 9.8875L19.38 2.17291C18.6705 1.70195 17.8442 1.45148 17 1.45148C16.1558 1.45148 15.3295 1.70195 14.62 2.17291L3.11666 9.8875C2.60916 10.1989 2.18689 10.6379 1.88951 11.1634C1.59214 11.6889 1.42942 12.2836 1.41666 12.8917V33.5417H14.1667V25.4187H19.8333V33.5417H32.5833V12.8917C32.5706 12.2836 32.4078 11.6889 32.1105 11.1634C31.8131 10.6379 31.3908 10.1989 30.8833 9.8875ZM29.75 30.625H22.6667V22.5021H11.3333V30.625H4.24999V12.8917C4.26033 12.7727 4.29947 12.6584 4.36381 12.559C4.42815 12.4597 4.51566 12.3785 4.61832 12.3229L16.1217 4.60833C16.3738 4.45134 16.6628 4.36836 16.9575 4.36836C17.2521 4.36836 17.5412 4.45134 17.7933 4.60833L29.2967 12.3229C29.3993 12.3785 29.4868 12.4597 29.5512 12.559C29.6155 12.6584 29.6546 12.7727 29.665 12.8917L29.75 30.625Z" fill="white"/>
</svg>
